<svg width="130" height="18" viewBox="0 0 130 18" fill="none" xmlns="http://www.w3.org/2000/svg">
<path d="M9 14.7264L3.43818 18L4.68019 11.4262L0 6.87562L6.32989 6.08624L9 0L11.6701 6.08624L18 6.87562L13.3198 11.4262L14.5618 18L9 14.7264Z" fill="#FFA800"/>
<path d="M37 14.7264L31.4382 18L32.6802 11.4262L28 6.87562L34.3299 6.08624L37 0L39.6701 6.08624L46 6.87562L41.3198 11.4262L42.5618 18L37 14.7264Z" fill="#FFA800"/>
<path d="M65 14.7264L59.4382 18L60.6802 11.4262L56 6.87562L62.3299 6.08624L65 0L67.6701 6.08624L74 6.87562L69.3198 11.4262L70.5618 18L65 14.7264Z" fill="#FFA800"/>
<path d="M93 14.7264L87.4382 18L88.6802 11.4262L84 6.87562L90.3299 6.08624L93 0L95.6701 6.08624L102 6.87562L97.3198 11.4262L98.5618 18L93 14.7264Z" fill="#FFA800"/>
<path d="M121 14.7264L115.438 18L116.68 11.4262L112 6.87562L118.33 6.08624L121 0L123.67 6.08624L130 6.87562L125.32 11.4262L126.562 18L121 14.7264Z" fill="#FFA800"/>
</svg>
