<svg width="50" height="50" viewBox="0 0 50 50" fill="none" xmlns="http://www.w3.org/2000/svg">
<path d="M35.4167 8.33333H31.25V4.16667H18.75V8.33333H14.5833V4.16667C14.5833 1.875 16.4583 0 18.75 0H31.25C33.5417 0 35.4167 1.875 35.4167 4.16667V8.33333ZM50 16.6667V43.75C50 46.0417 48.125 47.9167 45.8333 47.9167H43.75C43.75 49.1667 42.9167 50 41.6667 50H37.5C36.25 50 35.4167 49.1667 35.4167 47.9167H14.5833C14.5833 49.1667 13.75 50 12.5 50H8.33333C7.08333 50 6.25 49.1667 6.25 47.9167H4.16667C1.875 47.9167 0 46.0417 0 43.75V16.6667C0 14.375 1.875 12.5 4.16667 12.5H45.8333C48.125 12.5 50 14.375 50 16.6667ZM8.33333 25C8.33333 27.2917 10.2083 29.1667 12.5 29.1667C14.7917 29.1667 16.6667 27.2917 16.6667 25C16.6667 22.7083 14.7917 20.8333 12.5 20.8333C10.2083 20.8333 8.33333 22.7083 8.33333 25ZM23.75 37.5L21.4583 31.6667L11.6667 35.4167L13.9583 41.25L23.75 37.5ZM36.875 32.2917L42.7083 26.4583L33.9583 17.7083L28.125 23.5417L36.875 32.2917Z" fill="url(#paint0_linear_55980_881)"/>
<defs>
<linearGradient id="paint0_linear_55980_881" x1="27" y1="2.90597e-08" x2="20.8572" y2="46.0149" gradientUnits="userSpaceOnUse">
<stop stop-color="#C82BFF"/>
<stop offset="1" stop-color="#7B61FF"/>
</linearGradient>
</defs>
</svg>
