<svg width="195" height="51" viewBox="0 0 195 51" fill="none" xmlns="http://www.w3.org/2000/svg">
<path d="M84.9128 46.4C84.6195 46.4 84.4061 46.2667 84.2728 46C84.1395 45.7067 84.0595 45.3867 84.0328 45.04C84.0061 44.6933 83.9928 44.4133 83.9928 44.2C83.9928 43.8267 84.0195 43.3467 84.0728 42.76C84.1261 42.1733 84.1928 41.56 84.2728 40.92C84.3528 40.2533 84.4328 39.68 84.5128 39.2L85.1928 35.04C85.2728 34.5067 85.3528 34.0133 85.4328 33.56C85.5128 33.08 85.5528 32.5733 85.5528 32.04C85.5528 31.64 85.4728 31.3333 85.3128 31.12C85.1528 30.9067 84.9395 30.8 84.6728 30.8C84.3261 30.8 83.7528 31.1333 82.9528 31.8C82.1528 32.4667 81.2995 33.4133 80.3928 34.64C79.4861 35.8667 78.6595 37.3467 77.9128 39.08C77.1661 40.8133 76.6861 42.7467 76.4728 44.88L75.5928 39C76.6861 35.9067 77.8995 33.44 79.2328 31.6C80.5928 29.76 81.9395 28.44 83.2728 27.64C84.6061 26.8133 85.7661 26.4 86.7528 26.4C87.5795 26.4 88.2328 26.5467 88.7128 26.84C89.2195 27.1333 89.5928 27.56 89.8328 28.12C90.0728 28.68 90.1928 29.3467 90.1928 30.12C90.1928 30.68 90.1395 31.28 90.0328 31.92C89.9528 32.5333 89.8595 33.1867 89.7528 33.88L87.8328 46.4H84.9128ZM61.1528 46.56C60.8061 46.56 60.5395 46.4933 60.3528 46.36C60.1928 46.2533 60.0995 45.9467 60.0728 45.44C60.0728 44.9333 60.1395 44.12 60.2728 43L62.1528 26.36H64.9528C65.4861 26.36 65.8728 26.6533 66.1128 27.24C66.3795 27.8267 66.5128 28.4933 66.5128 29.24C66.5128 29.5867 66.4061 30.1333 66.1928 30.88C66.0061 31.6 65.7795 32.3733 65.5128 33.2C65.2461 34 65.0061 34.7067 64.7928 35.32L63.7528 38.6L65.2328 38.36L64.5528 44.88C64.5261 45.1467 64.3661 45.3867 64.0728 45.6C63.8061 45.8133 63.4861 45.9867 63.1128 46.12C62.7395 46.28 62.3661 46.3867 61.9928 46.44C61.6461 46.52 61.3661 46.56 61.1528 46.56ZM72.9528 46.56C72.4728 46.56 72.1795 46.4667 72.0728 46.28C71.9661 46.0933 71.9128 45.7733 71.9128 45.32C71.9128 44.92 71.9528 44.2667 72.0328 43.36C72.1395 42.4533 72.3528 41.0667 72.6728 39.2L73.3928 35.08C73.4995 34.5467 73.5795 34.0267 73.6328 33.52C73.7128 32.9867 73.7528 32.4533 73.7528 31.92C73.7528 31.5467 73.6861 31.2667 73.5528 31.08C73.4195 30.8933 73.2061 30.8 72.9128 30.8C72.5395 30.8 71.9395 31.1333 71.1128 31.8C70.2861 32.4667 69.4061 33.4133 68.4728 34.64C67.5661 35.8667 66.7395 37.3467 65.9928 39.08C65.2461 40.8133 64.7661 42.7467 64.5528 44.88L63.5928 39C64.3928 36.68 65.2995 34.72 66.3128 33.12C67.3261 31.52 68.3528 30.2267 69.3928 29.24C70.4328 28.2533 71.4195 27.5333 72.3528 27.08C73.3128 26.6267 74.1395 26.4 74.8328 26.4C75.7128 26.4 76.3928 26.56 76.8728 26.88C77.3795 27.2 77.7261 27.6267 77.9128 28.16C78.1261 28.6667 78.2328 29.2 78.2328 29.76C78.2328 30.4267 78.1261 31.12 77.9128 31.84C77.6995 32.56 77.4061 33.44 77.0328 34.48C76.6861 35.4933 76.2995 36.8 75.8728 38.4L77.1928 37.92L76.4728 44.88C76.4461 45.1467 76.2995 45.3867 76.0328 45.6C75.7661 45.8133 75.4328 45.9867 75.0328 46.12C74.6595 46.2533 74.2728 46.36 73.8728 46.44C73.4995 46.52 73.1928 46.56 72.9528 46.56ZM94.5559 46.64C94.1026 46.64 93.8093 46.3867 93.6759 45.88C93.5426 45.3467 93.4759 44.8 93.4759 44.24C93.4759 43.28 93.5159 42.4267 93.5959 41.68C93.7026 40.9333 93.8093 40.1067 93.9159 39.2L95.3559 26.36H98.1559C98.6893 26.36 99.0359 26.6533 99.1959 27.24C99.3559 27.8267 99.4359 28.4933 99.4359 29.24C99.4359 29.6133 99.4093 30.0133 99.3559 30.44C99.3026 30.84 99.2226 31.4667 99.1159 32.32L98.3559 38.84C98.1959 40.2267 98.0493 41.3867 97.9159 42.32C97.7826 43.2533 97.6759 44.0533 97.5959 44.72C97.5159 45.3867 97.4359 46.0267 97.3559 46.64H94.5559ZM98.0759 24.08C97.3293 24.08 96.6759 23.8267 96.1159 23.32C95.5826 22.8133 95.3159 22.1467 95.3159 21.32C95.3159 20.3333 95.6359 19.5733 96.2759 19.04C96.9159 18.48 97.6493 18.2 98.4759 18.2C99.2493 18.2 99.8893 18.4267 100.396 18.88C100.929 19.3333 101.196 20.0133 101.196 20.92C101.196 21.8267 100.889 22.5867 100.276 23.2C99.6626 23.7867 98.9293 24.08 98.0759 24.08ZM106.253 46.64C104.759 46.64 103.693 46.04 103.053 44.84C102.413 43.6133 102.093 41.9067 102.093 39.72C102.093 37.7733 102.373 35.9867 102.933 34.36C103.519 32.7333 104.306 31.3333 105.293 30.16C106.279 28.96 107.426 28.04 108.733 27.4C110.039 26.7333 111.426 26.4 112.893 26.4C114.039 26.4 115.079 26.56 116.013 26.88C116.973 27.1733 117.786 27.48 118.453 27.8L117.293 32C116.573 31.52 115.759 31.08 114.853 30.68C113.973 30.28 113.146 29.9733 112.373 29.76C111.626 29.52 111.066 29.4 110.693 29.4C109.946 29.4 109.253 29.7733 108.613 30.52C107.999 31.24 107.506 32.2533 107.133 33.56C106.786 34.84 106.613 36.32 106.613 38C106.613 39.5467 106.719 40.72 106.933 41.52C107.173 42.32 107.546 42.72 108.053 42.72C108.399 42.72 108.986 42.3333 109.813 41.56C110.639 40.76 111.639 39.44 112.813 37.6C113.986 35.76 115.226 33.2667 116.533 30.12L117.653 33.68C116.213 36.88 114.839 39.4267 113.533 41.32C112.226 43.2133 110.973 44.5733 109.773 45.4C108.573 46.2267 107.399 46.64 106.253 46.64ZM115.813 46.4C115.279 46.4 114.959 46.1467 114.853 45.64C114.746 45.1067 114.693 44.5467 114.693 43.96C114.693 43.5067 114.746 42.9467 114.853 42.28C114.986 41.6133 115.146 40.8933 115.333 40.12C115.519 39.3467 115.719 38.5867 115.933 37.84L116.813 34.84L115.653 33.8L116.613 27.76C117.466 27.6267 118.213 27.4533 118.853 27.24C119.519 27.0267 120.066 26.84 120.493 26.68C120.946 26.52 121.266 26.44 121.453 26.44C121.746 26.44 121.893 26.6 121.893 26.92C121.893 27.0533 121.719 27.6267 121.373 28.64C121.053 29.6267 120.693 30.8933 120.293 32.44C119.919 33.9867 119.639 35.6667 119.453 37.48L118.613 46.4H115.813ZM127.78 46.64C126.5 46.64 125.593 46.2667 125.06 45.52C124.553 44.7733 124.393 43.6 124.58 42L126.14 29.8H124.86C124.46 29.8 124.26 29.5867 124.26 29.16C124.26 28.8933 124.433 28.5067 124.78 28C125.153 27.4933 125.62 26.9333 126.18 26.32C126.74 25.7067 127.313 25.12 127.9 24.56C128.513 24 129.073 23.5467 129.58 23.2C130.087 22.8267 130.473 22.64 130.74 22.64C131.033 22.64 131.233 22.76 131.34 23C131.447 23.2133 131.473 23.4933 131.42 23.84L131.06 27H135.54C135.94 27 136.167 27.0667 136.22 27.2C136.3 27.3333 136.287 27.5467 136.18 27.84C135.86 28.7467 135.553 29.3067 135.26 29.52C134.993 29.7067 134.487 29.8 133.74 29.8H130.54L129.54 38.36C129.487 38.8667 129.433 39.3467 129.38 39.8C129.353 40.2533 129.34 40.6667 129.34 41.04C129.34 41.6533 129.487 42.0933 129.78 42.36C130.073 42.6 130.553 42.72 131.22 42.72C131.86 42.72 132.407 42.5867 132.86 42.32C133.34 42.0533 133.673 41.92 133.86 41.92C134.073 41.92 134.18 42.0533 134.18 42.32C134.18 42.5867 134.033 42.96 133.74 43.44C133.473 43.92 133.06 44.4133 132.5 44.92C131.967 45.4 131.3 45.8 130.5 46.12C129.7 46.4667 128.793 46.64 127.78 46.64ZM143.432 46.6C141.138 46.6 139.352 45.9333 138.072 44.6C136.818 43.24 136.192 41.2533 136.192 38.64C136.192 36.9067 136.472 35.3067 137.032 33.84C137.618 32.3467 138.405 31.04 139.392 29.92C140.378 28.8 141.512 27.9333 142.792 27.32C144.098 26.68 145.472 26.36 146.912 26.36C149.205 26.36 150.952 27.04 152.152 28.4C153.378 29.76 153.992 31.8133 153.992 34.56C153.992 36.2133 153.712 37.7733 153.152 39.24C152.618 40.68 151.872 41.96 150.912 43.08C149.952 44.1733 148.832 45.04 147.552 45.68C146.272 46.2933 144.898 46.6 143.432 46.6ZM144.392 43.6C145.405 43.6 146.272 43.2267 146.992 42.48C147.738 41.7333 148.298 40.7067 148.672 39.4C149.072 38.0933 149.272 36.6267 149.272 35C149.272 33.2667 149.005 31.8933 148.472 30.88C147.965 29.8667 147.112 29.36 145.912 29.36C144.925 29.36 144.045 29.7333 143.272 30.48C142.525 31.2267 141.938 32.2533 141.512 33.56C141.112 34.84 140.912 36.3067 140.912 37.96C140.912 39.8 141.205 41.2 141.792 42.16C142.378 43.12 143.245 43.6 144.392 43.6ZM159.923 46.52C158.883 46.52 158.069 46.24 157.483 45.68C156.923 45.0933 156.643 44.2267 156.643 43.08C156.643 42.68 156.643 42.28 156.643 41.88C156.669 41.48 156.709 41 156.763 40.44C156.843 39.88 156.936 39.16 157.043 38.28L158.563 26.36H161.363C161.816 26.36 162.109 26.6267 162.243 27.16C162.403 27.6667 162.483 28.2933 162.483 29.04C162.483 29.6 162.443 30.3333 162.363 31.24C162.283 32.1467 162.163 33.1467 162.003 34.24L161.523 37.52C161.416 38.2667 161.336 38.9333 161.283 39.52C161.256 40.1067 161.243 40.5867 161.243 40.96C161.243 41.4933 161.296 41.9067 161.403 42.2C161.536 42.4667 161.776 42.6 162.123 42.6C162.523 42.6 163.029 42.3067 163.643 41.72C164.256 41.1333 164.896 40.36 165.563 39.4C166.256 38.44 166.896 37.4133 167.483 36.32C168.069 35.2 168.549 34.12 168.923 33.08C169.296 32.04 169.483 31.1467 169.483 30.4C169.483 29.7867 169.403 29.28 169.243 28.88C169.109 28.4533 169.056 28.1067 169.083 27.84C169.083 27.6 169.229 27.3867 169.523 27.2C169.843 27.0133 170.216 26.8667 170.643 26.76C171.069 26.6267 171.496 26.5333 171.923 26.48C172.349 26.4 172.683 26.36 172.923 26.36C173.376 26.36 173.723 26.6267 173.963 27.16C174.229 27.6933 174.309 28.4533 174.203 29.44L172.323 46.4H169.523C169.203 46.4 168.949 46.24 168.763 45.92C168.576 45.5733 168.443 45.1867 168.363 44.76C168.309 44.3333 168.283 44.0133 168.283 43.8C168.283 43.1867 168.363 42.52 168.523 41.8C168.709 41.08 168.963 40.16 169.283 39.04C169.629 37.92 170.043 36.48 170.523 34.72V35.4C169.483 38.12 168.336 40.2933 167.083 41.92C165.829 43.5467 164.589 44.72 163.363 45.44C162.136 46.16 160.989 46.52 159.923 46.52ZM181.817 45.04L180.858 39C181.844 36.44 182.844 34.2267 183.858 32.36C184.898 30.4667 185.951 29 187.018 27.96C188.084 26.92 189.164 26.4 190.258 26.4C190.871 26.4 191.311 26.6 191.578 27C191.844 27.3733 191.978 27.8533 191.978 28.44C191.978 28.9733 191.911 29.4933 191.778 30C191.671 30.48 191.498 30.88 191.258 31.2C191.044 31.52 190.778 31.68 190.458 31.68C190.164 31.68 189.831 31.5867 189.458 31.4C189.111 31.2133 188.631 31.12 188.018 31.12C187.618 31.12 187.111 31.5333 186.497 32.36C185.884 33.1867 185.244 34.2933 184.578 35.68C183.938 37.04 183.364 38.5467 182.858 40.2C182.351 41.8267 182.004 43.44 181.817 45.04ZM178.458 46.56C178.111 46.56 177.844 46.4933 177.658 46.36C177.498 46.2533 177.404 45.9467 177.378 45.44C177.378 44.9333 177.444 44.12 177.578 43L179.458 26.36H182.258C182.658 26.36 183.018 26.6533 183.338 27.24C183.658 27.8267 183.818 28.4933 183.818 29.24C183.818 29.5867 183.711 30.1333 183.498 30.88C183.311 31.6 183.084 32.3733 182.818 33.2C182.551 34 182.311 34.7067 182.098 35.32L181.058 38.6L182.538 38.36L181.817 45.04C181.791 45.3067 181.631 45.5467 181.338 45.76C181.044 45.9467 180.698 46.0933 180.298 46.2C179.924 46.3333 179.564 46.4267 179.218 46.48C178.871 46.5333 178.618 46.56 178.458 46.56Z" fill="white"/>
<path d="M35.4167 8.33333H31.25V4.16667H18.75V8.33333H14.5833V4.16667C14.5833 1.875 16.4583 0 18.75 0H31.25C33.5417 0 35.4167 1.875 35.4167 4.16667V8.33333ZM50 16.6667V43.75C50 46.0417 48.125 47.9167 45.8333 47.9167H43.75C43.75 49.1667 42.9167 50 41.6667 50H37.5C36.25 50 35.4167 49.1667 35.4167 47.9167H14.5833C14.5833 49.1667 13.75 50 12.5 50H8.33333C7.08333 50 6.25 49.1667 6.25 47.9167H4.16667C1.875 47.9167 0 46.0417 0 43.75V16.6667C0 14.375 1.875 12.5 4.16667 12.5H45.8333C48.125 12.5 50 14.375 50 16.6667ZM8.33333 25C8.33333 27.2917 10.2083 29.1667 12.5 29.1667C14.7917 29.1667 16.6667 27.2917 16.6667 25C16.6667 22.7083 14.7917 20.8333 12.5 20.8333C10.2083 20.8333 8.33333 22.7083 8.33333 25ZM23.75 37.5L21.4583 31.6667L11.6667 35.4167L13.9583 41.25L23.75 37.5ZM36.875 32.2917L42.7083 26.4583L33.9583 17.7083L28.125 23.5417L36.875 32.2917Z" fill="url(#paint0_linear_55980_879)"/>
<defs>
<linearGradient id="paint0_linear_55980_879" x1="27" y1="2.90597e-08" x2="20.8572" y2="46.0149" gradientUnits="userSpaceOnUse">
<stop stop-color="#C82BFF"/>
<stop offset="1" stop-color="#7B61FF"/>
</linearGradient>
</defs>
</svg>
